<svg width="21" height="17" viewBox="0 0 21 17" fill="none" xmlns="http://www.w3.org/2000/svg">
<path d="M0.750092 3.964L7.73009 8.618C8.69309 9.259 9.17409 9.58 9.69409 9.705C10.1541 9.815 10.6331 9.815 11.0921 9.705C11.6121 9.58 12.0931 9.259 13.0561 8.618L20.0361 3.964M5.55009 15.75H15.2361C16.9161 15.75 17.7561 15.75 18.3981 15.423C18.9622 15.1352 19.4207 14.6763 19.7081 14.112C20.0361 13.47 20.0361 12.63 20.0361 10.95V5.55C20.0361 3.87 20.0361 3.03 19.7091 2.388C19.4215 1.82354 18.9626 1.36462 18.3981 1.077C17.7561 0.75 16.9161 0.75 15.2361 0.75H5.55009C3.87009 0.75 3.03009 0.75 2.38809 1.077C1.824 1.36479 1.36545 1.82369 1.07809 2.388C0.750091 3.03 0.750092 3.87 0.750092 5.55V10.95C0.750092 12.63 0.750091 13.47 1.07709 14.112C1.36471 14.6765 1.82363 15.1354 2.38809 15.423C3.03009 15.75 3.87009 15.75 5.55009 15.75Z" stroke="black" stroke-width="1.5" stroke-linecap="round" stroke-linejoin="round"/>
</svg>
